<svg height="34" viewBox="0 0 117 34" width="117" xmlns="http://www.w3.org/2000/svg"><g fill="none" fill-rule="evenodd"><g fill="#000"><path d="m32.9209 28.8628c0-3.002 2.173-5.136 5.314-5.136 1.973 0 3.781.959 4.603 2.695l-1.936 1.03c-.567-.94-1.516-1.555-2.63-1.555-1.717 0-2.977 1.284-2.977 2.966s1.224 2.966 2.904 2.966c1.096 0 2.191-.633 2.666-1.538l1.936 1.121c-.84 1.556-2.593 2.587-4.639 2.587-3.086 0-5.241-2.152-5.241-5.136"/><path d="m44.6278 20.0381h2.319v5.19c.53-.85 1.68-1.519 3.141-1.519 1.991 0 3.854 1.302 3.854 4.087v5.985h-2.374v-5.352c0-1.682-.895-2.568-2.174-2.568-1.406 0-2.392 1.067-2.392 2.604v5.316h-2.374z"/><path d="m65.7766 29.7125h-7.561c.292 1.266 1.224 2.26 3.032 2.26 1.114 0 2.41-.416 3.269-1.012l.949 1.681c-.931.687-2.501 1.357-4.31 1.357-3.725 0-5.369-2.532-5.369-5.136 0-2.929 2.064-5.135 5.151-5.135 2.793 0 4.912 1.826 4.912 4.936 0 .398-.037.724-.073 1.049m-7.561-1.79h5.296c-.201-1.374-1.223-2.224-2.574-2.224-1.389 0-2.411.868-2.722 2.224"/><path d="m67.439 28.8628c0-3.002 2.173-5.136 5.315-5.136 1.972 0 3.78.959 4.602 2.695l-1.936 1.03c-.566-.94-1.516-1.555-2.63-1.555-1.716 0-2.977 1.284-2.977 2.966s1.224 2.966 2.904 2.966c1.096 0 2.191-.633 2.666-1.538l1.936 1.121c-.84 1.556-2.593 2.587-4.638 2.587-3.087 0-5.242-2.152-5.242-5.136"/><path d="m82.2506 29.4956-.731.651v3.634h-2.374v-13.743h2.374v7.433l3.817-3.509h3.032l-4.474 4.051 4.711 5.768h-2.958z"/><path d="m88.936 29.875h7.396v-2.206h-7.396z"/><g transform="translate(31)"><path d="m68.0171 21.3042c0-.85.657-1.483 1.516-1.483.84 0 1.516.633 1.516 1.483s-.676 1.483-1.516 1.483c-.859 0-1.516-.633-1.516-1.483zm.311 12.477h2.392v-9.819h-2.392z"/><path d="m73.1855 23.9621h2.338v1.375c.529-.959 1.662-1.628 3.122-1.628 2.009 0 3.89 1.302 3.89 4.087v5.985h-2.392v-5.334c0-1.682-.895-2.586-2.173-2.586-1.425 0-2.411 1.085-2.411 2.622v5.298h-2.374z"/><path d="m.8856 8.2568c0-4.511 3.596-8.171 8.086-8.171 4.468 0 8.086 3.66 8.086 8.128 0 4.469-3.596 8.128-8.129 8.128-4.511 0-8.043-3.617-8.043-8.085m14.831-.021c0-3.852-2.979-6.894-6.745-6.894-3.767 0-6.767 3.064-6.767 6.894 0 3.808 2.958 6.851 6.767 6.851 3.766 0 6.745-3.021 6.745-6.851"/></g><path d="m63.7825.3623v15.725h-.681l-10.107-12.789v12.789h-1.298v-15.725h.574l10.214 12.916v-12.916z"/><path d="m68.2938.3623h1.298v14.47h8.788v1.255h-10.086z"/><path d="m81.253 16.087h1.298v-15.725h-1.298z"/><path d="m99.3608.3623v15.725h-.681l-10.107-12.789v12.789h-1.298v-15.725h.574l10.214 12.916v-12.916z"/><path d="m103.6594.3623h9.469v1.234h-8.171v5.916h7.618v1.213h-7.618v6.128h8.213v1.234h-9.511z"/></g><path d="m116.0957 25.3247c0 .606-.495 1.097-1.101 1.097s-1.101-.5-1.101-1.106.495-1.097 1.101-1.097 1.101.5 1.101 1.106m-.148-.005c0-.522-.439-.957-.953-.957-.513 0-.953.435-.953.957 0 .523.44.958.953.958.514 0 .953-.435.953-.958m-.805.107.259.439h-.152l-.241-.425h-.236v.425h-.13v-1.115h.407c.209 0 .352.149.352.347 0 .167-.097.287-.259.329m.139-.329c0-.129-.083-.231-.259-.231h-.25v.458h.222c.19 0 .287-.088.287-.227" fill="#fff"/><path d="m13.655.0859c-7.532 0-13.63900219 6.106-13.63900219 13.639 0 0-.00299781.955.21300219 2.387.415 1.985 1.274 3.703 2.272 5.457 1.862 3.198 5.247 7.437 10.809 12.329 0 0 7.573-5.609 11.664-12.561 1.266-2.027 2.327-4.484 2.419-7.119.007-.16.011-.321.012-.481 0-7.532-6.217-13.651-13.75-13.651zm.056 24.373c-5.898 0-10.679-4.781-10.679-10.678 0-5.898 4.781-10.679 10.679-10.679 5.897 0 10.678 4.781 10.678 10.679 0 5.897-4.781 10.678-10.678 10.678zm.049-5.794-5.966-3.835.78-1.213 4.682 3.011 4.569-8.083 1.255.709z" fill="#048667"/></g></svg>